<svg xmlns="http://www.w3.org/2000/svg" xmlns:xlink="http://www.w3.org/1999/xlink" width="2000" zoomAndPan="magnify" viewBox="0 0 1500 1499.999933" height="2000" preserveAspectRatio="xMidYMid meet" version="1.0"><defs><g/><clipPath id="65b57a88bf"><path d="M 118 579.53125 L 182.773438 579.53125 L 182.773438 712 L 118 712 Z M 118 579.53125 " clip-rule="nonzero"/></clipPath><clipPath id="7368b45eed"><path d="M 0.078125 0.839844 L 64.160156 0.839844 L 64.160156 132.601562 L 0.078125 132.601562 Z M 0.078125 0.839844 " clip-rule="nonzero"/></clipPath><clipPath id="ff54fb02b0"><rect x="0" width="65" y="0" height="133"/></clipPath></defs><g fill="#1e1e1e" fill-opacity="1"><g transform="translate(13.24222, 952.328346)"><g><path d="M 144.890625 -208.375 C 164.890625 -208.375 182.804688 -203.957031 198.640625 -195.125 C 214.484375 -186.300781 226.882812 -173.96875 235.84375 -158.125 C 244.800781 -142.289062 249.28125 -123.988281 249.28125 -103.21875 C 249.28125 -82.445312 244.800781 -64.078125 235.84375 -48.109375 C 226.882812 -32.140625 214.484375 -19.738281 198.640625 -10.90625 C 182.804688 -2.070312 164.890625 2.34375 144.890625 2.34375 C 129.566406 2.34375 115.546875 -0.640625 102.828125 -6.609375 C 90.109375 -12.585938 79.59375 -21.289062 71.28125 -32.71875 L 71.28125 0 L 35.4375 0 L 35.4375 -289.015625 L 72.84375 -289.015625 L 72.84375 -175.28125 C 81.144531 -186.1875 91.523438 -194.425781 103.984375 -200 C 116.453125 -205.582031 130.085938 -208.375 144.890625 -208.375 Z M 141.78125 -30.375 C 155.019531 -30.375 166.894531 -33.425781 177.40625 -39.53125 C 187.925781 -45.632812 196.238281 -54.203125 202.34375 -65.234375 C 208.445312 -76.273438 211.5 -88.9375 211.5 -103.21875 C 211.5 -117.5 208.445312 -130.15625 202.34375 -141.1875 C 196.238281 -152.226562 187.925781 -160.734375 177.40625 -166.703125 C 166.894531 -172.679688 155.019531 -175.671875 141.78125 -175.671875 C 128.789062 -175.671875 116.972656 -172.679688 106.328125 -166.703125 C 95.679688 -160.734375 87.375 -152.226562 81.40625 -141.1875 C 75.4375 -130.15625 72.453125 -117.5 72.453125 -103.21875 C 72.453125 -88.9375 75.4375 -76.273438 81.40625 -65.234375 C 87.375 -54.203125 95.679688 -45.632812 106.328125 -39.53125 C 116.972656 -33.425781 128.789062 -30.375 141.78125 -30.375 Z M 141.78125 -30.375 "/></g></g></g><g fill="#1e1e1e" fill-opacity="1"><g transform="translate(278.884127, 952.328346)"><g><path d="M 230.1875 -289.015625 L 230.1875 0 L 194.359375 0 L 194.359375 -32.71875 C 186.046875 -21.289062 175.523438 -12.585938 162.796875 -6.609375 C 150.078125 -0.640625 136.0625 2.34375 120.75 2.34375 C 100.75 2.34375 82.828125 -2.070312 66.984375 -10.90625 C 51.148438 -19.738281 38.753906 -32.140625 29.796875 -48.109375 C 20.835938 -64.078125 16.359375 -82.445312 16.359375 -103.21875 C 16.359375 -123.988281 20.835938 -142.289062 29.796875 -158.125 C 38.753906 -173.96875 51.148438 -186.300781 66.984375 -195.125 C 82.828125 -203.957031 100.75 -208.375 120.75 -208.375 C 135.550781 -208.375 149.179688 -205.582031 161.640625 -200 C 174.109375 -194.425781 184.492188 -186.1875 192.796875 -175.28125 L 192.796875 -289.015625 Z M 123.859375 -30.375 C 136.847656 -30.375 148.664062 -33.425781 159.3125 -39.53125 C 169.957031 -45.632812 178.265625 -54.203125 184.234375 -65.234375 C 190.203125 -76.273438 193.1875 -88.9375 193.1875 -103.21875 C 193.1875 -117.5 190.203125 -130.15625 184.234375 -141.1875 C 178.265625 -152.226562 169.957031 -160.734375 159.3125 -166.703125 C 148.664062 -172.679688 136.847656 -175.671875 123.859375 -175.671875 C 110.617188 -175.671875 98.738281 -172.679688 88.21875 -166.703125 C 77.707031 -160.734375 69.398438 -152.226562 63.296875 -141.1875 C 57.191406 -130.15625 54.140625 -117.5 54.140625 -103.21875 C 54.140625 -88.9375 57.191406 -76.273438 63.296875 -65.234375 C 69.398438 -54.203125 77.707031 -45.632812 88.21875 -39.53125 C 98.738281 -33.425781 110.617188 -30.375 123.859375 -30.375 Z M 123.859375 -30.375 "/></g></g></g><g fill="#1e1e1e" fill-opacity="1"><g transform="translate(544.526034, 952.328346)"><g><path d="M 293.6875 -208.375 C 319.65625 -208.375 340.234375 -200.84375 355.421875 -185.78125 C 370.609375 -170.726562 378.203125 -148.398438 378.203125 -118.796875 L 378.203125 0 L 340.8125 0 L 340.8125 -114.515625 C 340.8125 -134.503906 336.203125 -149.5625 326.984375 -159.6875 C 317.765625 -169.820312 304.585938 -174.890625 287.453125 -174.890625 C 268.492188 -174.890625 253.429688 -168.976562 242.265625 -157.15625 C 231.097656 -145.34375 225.515625 -128.398438 225.515625 -106.328125 L 225.515625 0 L 188.125 0 L 188.125 -114.515625 C 188.125 -134.503906 183.515625 -149.5625 174.296875 -159.6875 C 165.078125 -169.820312 151.898438 -174.890625 134.765625 -174.890625 C 115.804688 -174.890625 100.742188 -168.976562 89.578125 -157.15625 C 78.421875 -145.34375 72.84375 -128.398438 72.84375 -106.328125 L 72.84375 0 L 35.4375 0 L 35.4375 -206.4375 L 71.28125 -206.4375 L 71.28125 -175.671875 C 78.8125 -186.316406 88.675781 -194.425781 100.875 -200 C 113.082031 -205.582031 126.976562 -208.375 142.5625 -208.375 C 158.65625 -208.375 172.929688 -205.128906 185.390625 -198.640625 C 197.859375 -192.148438 207.46875 -182.675781 214.21875 -170.21875 C 222.007812 -182.15625 232.851562 -191.5 246.75 -198.25 C 260.644531 -205 276.289062 -208.375 293.6875 -208.375 Z M 293.6875 -208.375 "/></g></g></g><g fill="#1e1e1e" fill-opacity="1"><g transform="translate(956.232191, 952.328346)"><g><path d="M 145.671875 -208.375 C 171.898438 -208.375 192.738281 -200.78125 208.1875 -185.59375 C 223.632812 -170.40625 231.359375 -148.140625 231.359375 -118.796875 L 231.359375 0 L 193.96875 0 L 193.96875 -114.515625 C 193.96875 -134.503906 189.160156 -149.5625 179.546875 -159.6875 C 169.941406 -169.820312 156.179688 -174.890625 138.265625 -174.890625 C 118.015625 -174.890625 102.046875 -168.976562 90.359375 -157.15625 C 78.679688 -145.34375 72.84375 -128.398438 72.84375 -106.328125 L 72.84375 0 L 35.4375 0 L 35.4375 -206.4375 L 71.28125 -206.4375 L 71.28125 -175.28125 C 78.8125 -185.925781 89.003906 -194.101562 101.859375 -199.8125 C 114.710938 -205.519531 129.316406 -208.375 145.671875 -208.375 Z M 145.671875 -208.375 "/></g></g></g><g fill="#1e1e1e" fill-opacity="1"><g transform="translate(1221.484608, 952.328346)"><g><path d="M 145.671875 -208.375 C 171.898438 -208.375 192.738281 -200.78125 208.1875 -185.59375 C 223.632812 -170.40625 231.359375 -148.140625 231.359375 -118.796875 L 231.359375 0 L 193.96875 0 L 193.96875 -114.515625 C 193.96875 -134.503906 189.160156 -149.5625 179.546875 -159.6875 C 169.941406 -169.820312 156.179688 -174.890625 138.265625 -174.890625 C 118.015625 -174.890625 102.046875 -168.976562 90.359375 -157.15625 C 78.679688 -145.34375 72.84375 -128.398438 72.84375 -106.328125 L 72.84375 0 L 35.4375 0 L 35.4375 -206.4375 L 71.28125 -206.4375 L 71.28125 -175.28125 C 78.8125 -185.925781 89.003906 -194.101562 101.859375 -199.8125 C 114.710938 -205.519531 129.316406 -208.375 145.671875 -208.375 Z M 145.671875 -208.375 "/></g></g></g><g clip-path="url(#65b57a88bf)"><g transform="matrix(1, 0, 0, 1, 118, 579)"><g clip-path="url(#ff54fb02b0)"><g clip-path="url(#7368b45eed)"><path fill="#ff3131" d="M 60.394531 79.257812 C 62.402344 80.050781 64.472656 78.253906 64.023438 76.144531 C 58.539062 50.292969 51.625 25.902344 44.984375 1.445312 C 44.960938 1.367188 44.917969 1.296875 44.863281 1.238281 C 44.246094 0.53125 43.066406 1.042969 43.0625 1.980469 C 43.003906 10.550781 43.015625 19.121094 42.84375 27.6875 C 42.757812 32.046875 42.625 36.402344 42.40625 40.753906 C 42.375 41.382812 42.164062 43.257812 42.164062 45.054688 C 42.164062 46.890625 40.414062 48.226562 38.636719 47.765625 C 26.914062 44.722656 15.589844 41.027344 3.46875 37.707031 C 1.367188 37.132812 -0.472656 39.234375 0.355469 41.25 C 12.898438 71.769531 25.09375 101.429688 37.515625 131.640625 C 38.195312 133.300781 40.703125 132.574219 40.378906 130.808594 C 40.257812 130.144531 40.054688 129.519531 39.929688 128.925781 C 37.992188 119.863281 35.878906 110.835938 33.847656 101.789062 C 31.214844 90.0625 28.601562 78.332031 26.007812 66.597656 C 25.722656 65.296875 25.710938 63.933594 25.5 61.945312 C 30.316406 64.246094 34.632812 66.257812 38.902344 68.367188 C 43.058594 70.421875 47.089844 72.75 51.324219 74.628906 C 54.304688 75.949219 57.039062 77.929688 60.394531 79.257812 Z M 60.394531 79.257812 " fill-opacity="1" fill-rule="nonzero"/></g></g></g></g></svg>