<svg width="410" height="199" viewBox="0 0 410 199" fill="none" xmlns="http://www.w3.org/2000/svg">
<g clip-path="url(#clip0_25_7)">
<path d="M276.673 20.96C276.673 58.83 265.583 100.11 247.003 131.38C237.573 147.25 226.483 160.44 213.963 170.81C198.153 162.65 186.183 151.77 179.153 144.38C191.373 136.56 202.013 125.06 210.983 109.97C228.523 80.45 234.773 44.63 234.773 20.96C234.773 9.38 244.153 0 255.723 0C267.293 0 276.673 9.38 276.673 20.96Z" fill="url(#paint0_linear_25_7)"/>
<path d="M213.963 170.81C193.003 188.19 167.993 197.7 139.933 198.72C138.873 198.76 137.803 198.78 136.733 198.78C106.703 198.78 74.4734 183.57 49.8934 157.65C28.5134 135.12 2.52341 93.55 0.0134129 23.49C-0.396587 11.92 8.64341 1.21001 20.2034 0.800011C20.4534 0.790011 20.7134 0.790009 20.9634 0.790009C32.1934 0.790009 41.4834 10.68 41.8934 21.99C43.9234 78.96 63.8934 111.53 80.2934 128.82C100.663 150.31 123.663 157.41 138.403 156.85C153.473 156.3 167.083 152.13 179.153 144.38C186.183 151.77 198.153 162.65 213.963 170.81Z" fill="url(#paint1_linear_25_7)"/>
<path d="M270.043 198.78C240.013 198.78 207.783 183.57 183.203 157.65C161.833 135.11 135.833 93.55 133.333 23.49C132.923 11.93 141.953 2.22 153.523 1.8C153.773 1.79 154.033 1.79 154.283 1.79C165.503 1.79 174.803 10.68 175.203 21.99C177.243 78.96 197.213 111.53 213.603 128.82C233.983 150.31 256.973 157.41 271.713 156.85C302.043 155.74 326.463 139.97 344.293 109.97C361.833 80.45 368.083 44.63 368.083 20.95C368.083 9.38 377.463 0 389.033 0C400.603 0 409.983 9.38 409.983 20.95C409.983 58.83 398.893 100.11 380.313 131.37C355.103 173.79 318.083 197.08 273.243 198.72C272.183 198.76 271.113 198.78 270.043 198.78Z" fill="url(#paint2_linear_25_7)"/>
</g>
<defs>
<linearGradient id="paint0_linear_25_7" x1="205.291" y1="179.595" x2="260.5" y2="-1.54408e-06" gradientUnits="userSpaceOnUse">
<stop offset="0.283654" stop-color="#371BA9"/>
<stop offset="0.986" stop-color="#371BA9" stop-opacity="0"/>
</linearGradient>
<linearGradient id="paint1_linear_25_7" x1="117" y1="117.5" x2="262" y2="80.5" gradientUnits="userSpaceOnUse">
<stop stop-color="#FE09A4"/>
<stop offset="0.322115" stop-color="#691BA9"/>
</linearGradient>
<linearGradient id="paint2_linear_25_7" x1="167" y1="24" x2="187.5" y2="104.5" gradientUnits="userSpaceOnUse">
<stop stop-color="#5B57EB"/>
<stop offset="0.945932" stop-color="#005CFE"/>
</linearGradient>
<clipPath id="clip0_25_7">
<rect width="410" height="199" fill="white"/>
</clipPath>
</defs>
</svg>
